<svg width="192" height="29" viewBox="0 0 192 29" fill="none" xmlns="http://www.w3.org/2000/svg">
<path d="M13.648 27.9674H14.828V23.0318H13.648V27.9674ZM8.34 26.7332L9.436 27.1453L11.373 22.5387L10.278 22.1267L8.34 26.7332ZM17.27 22.5387L19.208 27.1453L20.303 26.6512L18.366 22.0447L17.27 22.5387ZM3.707 23.4428L4.549 24.2659L8.172 20.7285L7.329 19.9064L3.707 23.4428ZM20.387 20.8115L24.01 24.3479L24.853 23.5258L21.23 19.9884L20.387 20.8115ZM0.844 18.8373L1.349 19.9064L6.067 18.0142L5.561 16.945L0.844 18.8373ZM22.664 17.9322L27.381 19.8244L27.803 18.7543L23.085 16.863L22.664 17.9322ZM0 14.5597H5.054V13.4076H0.001L0 14.5597ZM23.505 14.5597H28.559V13.4076H23.505V14.5597ZM0.759 9.2131L5.476 11.1043L5.898 10.0352L1.18 8.14397L0.759 9.2131ZM22.579 9.9532L23.084 11.0223L27.802 9.13011L27.296 8.06098L22.579 9.9532ZM3.708 4.52454L7.33 8.06098L8.173 7.23887L4.55 3.70047L3.708 4.52454ZM20.388 7.15685L21.231 7.97896L24.854 4.44154L24.011 3.61943L20.388 7.15685ZM8.174 1.31616L10.111 5.92271L11.207 5.42866L9.268 0.823087L8.174 1.31616ZM17.27 5.42866L18.365 5.84069L20.303 1.23414L19.21 0.823087L17.27 5.42866ZM13.648 4.93559H14.828V0H13.648V4.93559Z" fill="url(#paint0_linear_1818_56652)"/>
<path d="M180.96 8.55502H180.033V19.4123H180.96V8.55502ZM101.01 8.39001H98.735V19.4133H101.01V8.39001ZM39.931 12.9145C40.184 11.1043 41.447 9.87118 43.217 9.87118C44.902 9.87118 46.165 11.0233 46.25 12.9145H39.931ZM39.931 14.5597H48.608V13.8187C48.608 10.1182 46.418 8.14299 43.217 8.14299C39.931 8.14299 37.657 10.3642 37.657 13.8187C37.657 17.4381 40.015 19.4944 43.217 19.4944C45.828 19.4944 47.934 18.2612 48.44 15.8759H45.997C45.66 17.1091 44.48 17.7671 43.132 17.7671C41.11 17.8501 40.015 16.287 39.931 14.5597M58.801 19.4123H61.161V12.4215C61.161 9.78819 59.729 8.14299 57.201 8.14299C55.432 8.14299 54.168 8.88406 53.411 10.0352V8.39001H51.22V19.4133H53.494V13.3256C53.494 11.5164 54.505 10.0352 56.443 10.0352C57.96 10.0352 58.886 10.7753 58.886 12.9966V19.4123H58.801ZM65.879 12.9145C66.131 11.1043 67.395 9.87118 69.164 9.87118C70.849 9.87118 72.113 11.0233 72.197 12.9145H65.879ZM65.879 14.5597H74.556V13.8187C74.556 10.1182 72.366 8.14299 69.164 8.14299C65.879 8.14299 63.604 10.3642 63.604 13.8187C63.604 17.4381 65.963 19.4944 69.164 19.4944C71.776 19.4944 73.882 18.2612 74.388 15.8759H72.028C71.692 17.1091 70.512 17.7671 69.164 17.7671C67.058 17.8501 65.963 16.287 65.879 14.5597M82.559 10.4463H83.655V8.22598H83.065C81.465 8.22598 80.032 8.88406 79.358 10.5283V8.39001H77.168V19.4133H79.443V13.6546C79.358 11.5984 80.706 10.4463 82.56 10.4463M93.596 13.6546C93.596 15.7109 92.5 17.2741 90.394 17.2741C88.372 17.2741 87.277 15.7109 87.277 13.6546C87.277 11.5984 88.372 10.0352 90.394 10.0352C92.5 10.0352 93.596 11.5974 93.596 13.6546ZM95.702 18.7543V8.39001H93.512V9.8702C92.753 8.80107 91.49 8.14299 89.889 8.14299C87.193 8.14299 84.834 10.1172 84.834 13.6546C84.834 17.1091 87.277 19.0833 89.974 19.0833C91.405 19.0833 92.584 18.5072 93.427 17.5211V18.9193C93.427 21.0575 92.079 21.7976 90.31 21.7976C88.625 21.7976 87.614 21.2216 87.446 20.0704H85.086C85.171 22.1267 86.856 23.6078 90.31 23.6078C93.512 23.6078 95.702 21.9626 95.702 18.7552M98.735 6.49779H101.094V4.27653H98.734L98.735 6.49779ZM105.895 12.9136C106.149 11.1043 107.412 9.8702 109.181 9.8702C110.866 9.8702 112.131 11.0223 112.214 12.9136H105.895ZM105.895 14.5588H114.573V13.8187C114.573 10.1172 112.383 8.14299 109.181 8.14299C105.896 8.14299 103.621 10.3642 103.621 13.8187C103.621 17.4381 105.981 19.4944 109.181 19.4944C111.793 19.4944 113.899 18.2602 114.405 15.8749H112.045C111.709 17.1091 110.529 17.7671 109.181 17.7671C107.075 17.8492 105.981 16.286 105.896 14.5588M118.533 11.4334C118.533 10.1172 119.713 9.29512 121.481 9.29512C123.166 9.29512 124.346 10.0352 124.514 11.5154H125.525C125.357 9.29414 123.419 8.308 121.481 8.308C119.207 8.308 117.521 9.54116 117.521 11.3514C117.521 12.9136 118.533 13.7367 120.386 14.0657L122.746 14.5588C124.093 14.8058 124.851 15.2998 124.851 16.369C124.851 17.4381 123.925 18.5893 121.65 18.5893C119.291 18.5893 118.364 17.4371 118.28 16.287H117.27C117.438 18.1782 119.038 19.5774 121.65 19.5774C124.346 19.5774 125.862 18.1782 125.862 16.451C125.862 14.8888 124.852 14.0657 122.998 13.7367L120.639 13.2426C119.291 12.9966 118.533 12.5025 118.533 11.4334M128.98 13.9837C128.98 11.3514 130.328 9.29512 133.024 9.29512C134.709 9.29512 136.225 10.1992 136.562 12.0094H137.573C137.236 9.78819 135.467 8.308 133.023 8.308C130.159 8.308 127.969 10.4463 127.969 13.9007C127.969 17.3561 130.159 19.4953 133.024 19.4953C135.467 19.4953 137.236 18.0142 137.574 15.7929H136.562C136.309 17.6031 134.792 18.5072 133.024 18.5072C130.328 18.6722 128.98 16.616 128.98 13.9837M148.104 19.4123H149.03V12.8316C149.03 9.78819 147.261 8.308 144.902 8.308C143.217 8.308 141.869 9.21212 141.28 10.4463V3.86548H140.353V19.3294H141.28V12.9136C141.28 11.0214 142.796 9.13011 144.902 9.13011C146.756 9.13011 148.019 10.1992 148.019 12.7486V19.4114L148.104 19.4123ZM162.594 19.4123L165.879 8.55404H164.869L162.004 18.3422L159.055 8.55404H157.792L154.843 18.3422L151.979 8.55404H150.968L154.338 19.4123H155.518L158.466 9.62416L161.499 19.4123H162.594ZM176.158 13.4076H168.491C168.744 10.6933 170.345 9.29512 172.451 9.29512C174.557 9.29512 176.073 10.6933 176.158 13.4076ZM177.168 14.2307V13.8187C177.168 9.95222 174.894 8.308 172.451 8.308C169.587 8.308 167.481 10.4463 167.481 13.9007C167.481 17.4381 169.671 19.5764 172.451 19.5764C174.557 19.5764 176.495 18.5072 176.916 16.204H175.906C175.4 17.9322 174.052 18.5902 172.366 18.5902C169.923 18.5902 168.491 16.616 168.491 14.2297L177.168 14.2307ZM180.033 6.25175H180.96V4.77058H180.033V6.25175ZM191.996 9.37615V8.55404H183.824V9.45915H190.817L183.571 18.5902V19.4123H191.828V18.5072H184.751L191.996 9.37615Z" fill="#192543"/>
<defs>
<linearGradient id="paint0_linear_1818_56652" x1="24.4201" y1="23.8932" x2="4.6405" y2="3.63501" gradientUnits="userSpaceOnUse">
<stop stop-color="#E9531A"/>
<stop offset="1" stop-color="#F7A82C"/>
</linearGradient>
</defs>
</svg>
