<svg width="14" height="15" viewBox="0 0 14 15" fill="none" xmlns="http://www.w3.org/2000/svg">
<path d="M9 0.134277C8.4375 0.134277 8 0.603027 8 1.13428C8 1.69678 8.4375 2.13428 9 2.13428H10.5625L5.28125 7.44678C4.875 7.82178 4.875 8.47803 5.28125 8.85303C5.65625 9.25928 6.3125 9.25928 6.6875 8.85303L12 3.57178V5.13428C12 5.69678 12.4375 6.13428 13 6.13428C13.5312 6.13428 14 5.69678 14 5.13428V1.13428C14 0.603027 13.5312 0.134277 13 0.134277H9ZM2.5 1.13428C1.09375 1.13428 0 2.25928 0 3.63428V11.6343C0 13.0405 1.09375 14.1343 2.5 14.1343H10.5C11.875 14.1343 13 13.0405 13 11.6343V9.13428C13 8.60303 12.5312 8.13428 12 8.13428C11.4375 8.13428 11 8.60303 11 9.13428V11.6343C11 11.9155 10.75 12.1343 10.5 12.1343H2.5C2.21875 12.1343 2 11.9155 2 11.6343V3.63428C2 3.38428 2.21875 3.13428 2.5 3.13428H5C5.53125 3.13428 6 2.69678 6 2.13428C6 1.60303 5.53125 1.13428 5 1.13428H2.5Z" fill="#636363"/>
</svg>
