<svg width="19" height="26" viewBox="0 0 19 26" fill="none" xmlns="http://www.w3.org/2000/svg">
<path d="M15.6998 2.25014C15.9966 1.53857 15.7493 0.725338 15.1557 0.318724C14.562 -0.138717 13.7706 -0.0878901 13.177 0.369551L0.513237 11.7547C0.0185602 12.2122 -0.129843 12.9238 0.117495 13.5845C0.315366 14.1944 0.908978 14.601 1.60152 14.601H7.09243L3.28342 23.7499C2.98662 24.4614 3.23396 25.2747 3.82757 25.6813C4.42118 26.1387 5.21266 26.0879 5.80627 25.6305L18.47 14.2453C18.9647 13.7878 19.1131 13.0762 18.9152 12.4155C18.6679 11.8056 18.0742 11.399 17.4312 11.399H11.8908L15.6998 2.25014Z" fill="#EB9F46"/>
</svg>
