<svg width="15" height="17" viewBox="0 0 15 17" fill="none" xmlns="http://www.w3.org/2000/svg">
<path d="M14.9505 3.04004V4.54004C14.9505 5.94629 11.7942 7.04004 7.95045 7.04004C4.07545 7.04004 0.950455 5.94629 0.950455 4.54004V3.04004C0.950455 1.66504 4.07545 0.540039 7.95045 0.540039C11.7942 0.540039 14.9505 1.66504 14.9505 3.04004ZM13.2317 7.25879C13.888 7.04004 14.4817 6.72754 14.9505 6.38379V9.54004C14.9505 10.9463 11.7942 12.04 7.95045 12.04C4.07545 12.04 0.950455 10.9463 0.950455 9.54004V6.38379C1.38795 6.72754 2.01295 7.04004 2.63795 7.25879C4.0442 7.75879 5.9192 8.04004 7.95045 8.04004C9.95045 8.04004 11.8255 7.75879 13.2317 7.25879ZM0.950455 11.3838C1.38795 11.7275 2.01295 12.04 2.63795 12.2588C4.0442 12.7588 5.9192 13.04 7.95045 13.04C9.95045 13.04 11.8255 12.7588 13.2317 12.2588C13.888 12.04 14.4817 11.7275 14.9505 11.3838V14.04C14.9505 15.4463 11.7942 16.54 7.95045 16.54C4.07545 16.54 0.950455 15.4463 0.950455 14.04V11.3838Z" fill="#8C8C8C"/>
</svg>
