<svg width="18" height="24" viewBox="0 0 18 24" fill="none" xmlns="http://www.w3.org/2000/svg">
<path d="M17.4375 12.0469L17.3906 11.9531C15.7969 7.54688 13.2188 3.60938 9.79688 0.421875L9.60938 0.28125C9.46875 0.09375 9.23438 0 9 0C8.71875 0 8.48438 0.09375 8.34375 0.28125L8.15625 0.421875C4.78125 3.60938 2.15625 7.54688 0.5625 11.9531L0.515625 12.0469C0.140625 13.0312 0 14.0625 0 15.0938C0 20.0156 4.03125 24 9 24C13.9219 24 18 20.0156 18 15.0938C18 14.0625 17.8125 13.0312 17.4375 12.0469ZM8.8125 6.98438C8.90625 6.84375 9.09375 6.75 9.23438 6.75C9.51562 6.75 9.75 6.98438 9.75 7.26562V7.82812C9.75 8.20312 9.89062 8.625 10.1719 8.90625L12.6094 11.2969C13.6406 12.3281 14.25 13.6875 14.25 15.1406C14.25 18 11.9531 20.25 9.14062 20.25H9C6.09375 20.25 3.75 17.9062 3.75 15V14.625C3.75 13.6406 4.07812 12.7031 4.73438 11.9531L5.0625 11.5781C5.15625 11.4844 5.29688 11.3906 5.48438 11.3906C5.76562 11.3906 6 11.625 6 11.9062V13.9688C6 15.1406 6.89062 16.0312 8.0625 16.0312C9.1875 16.0312 10.125 15.1406 10.125 14.0156C10.125 13.4531 9.89062 12.9375 9.51562 12.5625L8.90625 11.9062C8.25 11.25 7.875 10.3594 7.875 9.42188C7.875 8.67188 8.10938 7.92188 8.57812 7.3125L8.8125 6.98438Z" fill="#7F0393"/>
</svg>
