<svg width="16" height="15" viewBox="0 0 16 15" fill="none" xmlns="http://www.w3.org/2000/svg">
<path d="M9.59375 1.04626C9.21875 1.20251 9 1.57751 9 1.95251V3.95251H5.5C2.4375 3.95251 0 6.42126 0 9.45251C0 13.015 2.53125 14.5775 3.125 14.9213C3.1875 14.9525 3.28125 14.9525 3.375 14.9525C3.71875 14.9525 4 14.7025 4 14.3588C4 14.1088 3.84375 13.89 3.6875 13.7338C3.375 13.4525 3 12.9213 3 11.9525C3 10.2963 4.34375 8.95251 6 8.95251H9V10.9525C9 11.3588 9.21875 11.7338 9.59375 11.89C9.9375 12.0463 10.375 11.9838 10.6562 11.7025L15.6562 7.20251C15.875 7.01501 16 6.76501 16 6.45251C16 6.17126 15.875 5.92126 15.6562 5.73376L10.6562 1.23376C10.375 0.952515 9.9375 0.890015 9.59375 1.04626Z" fill="#636363"/>
</svg>
