<svg width="335" height="215" viewBox="0 0 335 215" fill="none" xmlns="http://www.w3.org/2000/svg">
<path d="M334.865 126.272C334.759 125.482 334.793 125.762 334.406 125.449C334.121 125.207 333.797 125.018 333.447 124.889C333.051 124.697 332.716 124.398 332.482 124.026C332.235 123.718 332.555 123.718 331.955 123.611C331.355 123.505 331.31 123.544 330.957 123.471C330.565 123.416 330.167 123.441 329.785 123.544C329.039 123.645 329.325 123.471 328.893 123.303C328.462 123.135 328.574 123.057 328.26 122.575C327.946 122.093 328.041 122.233 327.974 122.015C327.81 121.606 327.607 121.214 327.368 120.844C327.048 120.284 327.189 120.049 327.015 119.219C326.841 118.39 327.082 118.844 326.975 118.155C326.916 117.982 326.915 117.794 326.973 117.62C327.031 117.446 327.144 117.295 327.295 117.192C327.466 117.001 327.654 116.827 327.856 116.671C328.069 116.497 328.248 116.29 328.534 116.021C328.753 115.779 328.941 115.512 329.095 115.225C329.246 115.053 329.377 114.865 329.488 114.665C329.561 114.458 329.415 114.323 329.308 114.105C329.207 113.864 329.159 113.604 329.168 113.343C329.134 112.901 329.202 113.136 329.914 112.223C330.626 111.31 330.267 111.948 330.587 111.466C330.809 111.105 330.92 110.686 330.906 110.262C330.946 109.915 330.8 109.64 330.48 109.142C330.322 108.864 330.144 108.598 329.948 108.346C329.589 107.898 329.774 108.139 329.948 107.45C330.121 106.761 329.948 107.45 330.447 106.968C330.946 106.486 330.873 106.245 331.007 105.73C331.142 105.215 331.467 104.145 331.506 103.831C331.528 103.597 331.575 103.366 331.647 103.142C331.783 102.81 331.962 102.498 332.179 102.212C332.32 101.938 332.286 101.938 332.392 101.77C332.521 101.484 332.604 101.179 332.639 100.868C332.618 100.545 332.535 100.229 332.392 99.9378C332.293 99.4946 332.222 99.0455 332.179 98.5933C332.074 98.0258 332.016 97.4506 332.006 96.8735C332.004 96.4285 332.112 95.99 332.32 95.5963C332.533 94.9745 332.426 95.1145 332.678 94.4759C332.851 94.038 332.993 93.5888 333.105 93.1315C333.278 92.476 333.065 92.5713 333.211 92.1679C333.357 91.7646 332.998 91.6862 332.65 91.3725C332.345 91.0955 332.011 90.8531 331.652 90.6498C331.224 90.416 330.82 90.1402 330.447 89.8263C330.037 89.5176 329.598 89.2511 329.134 89.0309C328.422 88.5827 328.495 88.6892 328.349 88.4707C328.168 88.2441 328.057 87.9696 328.03 87.6808C327.996 87.2663 327.817 87.1654 327.676 86.8181C327.536 86.4708 327.25 86.51 326.858 86.0955C326.465 85.6809 326.605 85.5073 326.297 85.4401C325.855 85.3281 325.401 85.2698 324.945 85.2664C324.553 85.3 324.587 85.5409 323.824 85.9218C323.388 86.0687 322.988 86.3032 322.646 86.6109C321.867 87.2327 322.506 87.059 322.506 87.4399C322.526 87.8529 322.514 88.2667 322.473 88.678C322.447 89.0751 322.323 89.4599 322.114 89.7983C321.867 90.3585 321.654 90.1793 321.121 90.2801C320.588 90.3809 320.695 90.2465 320.162 90.3529C319.629 90.4594 320.162 90.3529 319.843 90.661C319.523 90.9691 319.949 90.9411 320.269 91.4173C320.588 91.8934 320.768 91.7982 321.087 92.0391C321.228 92.1124 321.339 92.2309 321.403 92.3754C321.467 92.5198 321.48 92.6816 321.441 92.8346C321.368 93.1763 321.048 93.0418 320.656 93.0754C320.069 93.0413 319.486 92.9494 318.917 92.801C318.476 92.7629 318.037 92.6936 317.605 92.5937C317.319 92.4536 317.213 92.5265 316.573 92.3136C315.934 92.1007 316.108 92.3528 315.452 92.3136C314.796 92.2744 315.02 92.3136 315.059 92.6609C315.111 92.9688 315.147 93.2792 315.166 93.5908C315.166 93.9717 314.992 93.8653 314.88 94.151C314.727 94.6168 314.69 95.1131 314.773 95.5963C314.846 96.459 315.132 97.7642 315.199 98.2124C315.267 98.6605 315.418 98.8678 315.166 99.3888C314.913 99.9098 314.42 99.5232 313.814 99.596C313.209 99.6689 312.323 99.7305 311.751 99.7977C311.179 99.8649 311.611 99.9378 311.33 100.386C311.185 100.698 310.996 100.989 310.769 101.249C310.416 101.63 310.668 101.489 310.343 101.658C310.018 101.826 310.024 101.697 309.564 101.658C309.157 101.642 308.753 101.727 308.386 101.904C307.926 102.072 307.467 102.111 306.967 102.246C306.553 102.378 306.11 102.392 305.689 102.285C305.229 102.179 305.302 102.179 305.089 101.831C304.935 101.512 304.686 101.248 304.377 101.075C304.016 100.943 303.638 100.862 303.255 100.834C302.722 100.733 302.756 100.627 302.19 100.386C301.623 100.145 301.797 99.7641 301.629 99.2655C301.452 98.8307 301.171 98.4459 300.81 98.1452C300.418 97.7642 300.35 97.6298 300.098 97.3889C299.846 97.148 299.924 96.6663 299.139 96.7671C298.442 96.8623 297.735 96.851 297.042 96.7335C296.262 96.6326 296.935 96.3918 296.616 96.1117C296.296 95.8316 296.582 95.8036 296.442 95.4226C296.302 95.0417 296.195 95.3218 295.797 95.2154C295.399 95.1089 294.171 95.0473 293.554 94.9409C292.893 94.8023 292.248 94.5938 291.631 94.3191C290.958 94.0446 290.352 93.1483 289.786 92.8402C289.219 92.5321 288.827 92.0447 288.434 90.8739C288.042 89.7031 288.434 90.3921 288.434 89.7535C288.434 89.1149 288.541 89.3726 288.933 88.93C289.252 88.5758 289.548 88.2016 289.819 87.8097C290.139 87.3615 289.931 87.087 289.505 86.7397C289.079 86.3924 289.107 86.3924 288.507 85.9106C287.907 85.4289 288.434 85.6025 288.401 85.0871C288.367 84.5718 288.793 84.7398 288.961 84.6726C289.13 84.6054 289.174 84.0172 289.174 83.8099C289.174 83.6026 288.569 83.429 288.216 83.2945C287.835 83.1681 287.424 83.1681 287.044 83.2945C286.438 83.3954 286.617 83.4626 286.225 83.569C285.762 83.5909 285.298 83.5665 284.84 83.4962C284.446 83.4977 284.066 83.3518 283.774 83.0873C283.212 82.8229 282.667 82.5235 282.142 82.191C281.71 81.7833 281.185 81.4872 280.612 81.3283C279.306 81.1348 277.975 81.1822 276.686 81.4683C275.907 81.5692 275.727 81.2274 275.268 80.8465C274.808 80.4656 274.768 80.1911 274.269 80.0903C273.77 79.9894 269.822 80.0174 269.088 79.8494L265.493 81.5299L264.181 79.8494L260.604 81.0762L260.278 81.3955L259.88 80.9081L259.353 81.1714L259.46 79.9054L260.581 79.1715L262.19 77.5302L262.454 76.3146L262.073 74.8133L261.686 71.9283L260.828 70.9816L260.076 68.6792L259.964 66.5729L260.772 63.3014L262.235 60.0971L262.561 58.2989C262.505 58.1925 262.561 58.0748 262.561 57.5258C262.561 56.6631 262.774 56.7696 263.093 56.4951C263.413 56.2206 263.306 56.2486 263.766 55.6324C264.126 55.1799 264.46 54.7066 264.764 54.2151C265.118 53.6549 265.325 52.8371 265.723 52.1872C266.121 51.5374 267.748 49.8064 268.213 48.5684C268.679 47.3304 269.026 47.6329 269.632 47.2912C269.994 47.0958 270.369 46.9237 270.753 46.7758C271.252 46.5349 271.219 47.1175 272.105 46.6694C272.991 46.2212 272.284 46.3949 272.284 45.4314C272.284 44.4678 272.497 45.084 272.604 44.7031C272.71 44.3222 272.211 44.2213 271.751 43.6724C271.404 43.2331 271.084 42.7729 270.793 42.2943C270.232 41.4652 270.434 41.1739 270.008 40.0199C269.581 38.8659 269.901 39.4597 269.867 38.7763C269.834 38.0929 269.94 38.569 270.473 38.3282C271.006 38.0873 270.647 37.8128 270.54 37.8128C270.283 37.6578 270.011 37.5301 269.727 37.4318C269.194 37.2974 269.514 37.191 269.335 36.8156C269.176 36.5487 268.998 36.294 268.802 36.0538C268.589 35.7121 268.303 35.6785 267.843 35.6448C267.383 35.6112 267.63 35.9193 267.417 36.0538C267.204 36.1882 266.918 36.0538 266.385 35.7121C265.852 35.3704 265.998 35.1967 265.606 34.4348C265.213 33.673 265.045 33.8186 264.647 33.3145C264.249 32.8103 263.934 32.5582 263.721 32.6254C263.508 32.6926 263.475 32.8999 263.161 33.2136C262.847 33.5273 262.628 33.589 262.308 33.869C262.013 34.2383 261.599 34.4937 261.136 34.5917C260.246 34.771 259.331 34.7937 258.433 34.6589C257.368 34.5917 257.794 34.4516 257.116 34.0987C256.437 33.7458 255.304 33.0624 254.738 32.7543C254.172 32.4462 254.598 32.5078 254.598 31.7179C254.598 30.9281 254.559 31.2025 253.886 30.4463C253.016 29.5114 252.065 28.6565 251.043 27.8918C250.263 27.3316 250.723 27.6173 250.583 26.9955C250.49 26.5034 250.254 26.0495 249.904 25.6903C249.625 25.2329 249.241 24.8487 248.783 24.5699C248.037 23.9817 247.964 23.6736 247.1 23.2927C246.237 22.9117 245.609 22.3964 244.644 21.881C243.68 21.3656 240.416 19.0801 239.463 18.5199C238.581 18.0738 237.726 17.5782 236.9 17.0354C236.154 16.52 236.194 16.0382 235.728 15.8646C235.263 15.6909 235.336 15.7637 234.607 15.7637C233.878 15.7637 233.754 16.0718 232.924 16.1054C232.094 16.1391 231.64 15.7637 230.9 15.6237C230.136 15.5075 229.385 15.32 228.657 15.0635C227.95 14.7834 228.236 15.0635 227.631 14.7498C227.025 14.4361 226.599 14.6826 225.853 15.0635C225.107 15.4444 225.354 15.1979 224.361 15.5453C223.768 15.7431 223.163 15.904 222.55 16.027C221.625 16.2679 221.019 16.3687 220.419 16.5872C219.819 16.8057 219.135 16.6936 218.215 16.9681C217.296 17.2426 216.971 17.2762 216.258 17.5283C216.048 17.5893 215.828 17.6064 215.611 17.5784C215.393 17.5505 215.184 17.4781 214.997 17.3659C214.89 17.3659 214.744 17.5395 214.357 16.9905C213.97 16.4416 213.466 15.506 212.933 14.7498C212.4 13.9935 212.507 14.1616 212.26 13.8199C212.013 13.4782 212.081 13.4053 212.44 13.0244C212.798 12.6435 212.686 13.1308 213.432 12.8564C214.178 12.5819 213.645 12.5763 213.572 11.9937C213.499 11.4111 213.572 11.5455 213.073 11.5791C212.574 11.6127 212.647 11.4727 212.473 11.3718C212.271 11.2686 212.083 11.1406 211.912 10.9909C211.626 10.75 211.52 10.8173 210.987 10.8173C210.454 10.8173 210.309 10.9237 209.866 10.8901C209.423 10.8565 209.473 10.7164 209.266 10.4419C209.058 10.1674 208.481 9.54563 208.2 9.51202C207.957 9.4492 207.703 9.43775 207.454 9.47841C207.241 9.54563 207.241 9.82013 206.989 9.82013C206.853 9.81308 206.716 9.83377 206.588 9.88095C206.46 9.92813 206.342 10.0008 206.243 10.0946C206.069 10.3019 206.21 10.4755 206.35 10.8173C206.49 11.159 206.882 11.1982 207.471 11.5119C208.06 11.8256 207.965 12.1281 208.217 12.7499C208.307 12.9804 208.331 13.2313 208.287 13.4747C208.242 13.7181 208.131 13.9443 207.965 14.128C207.718 14.5425 207.292 14.3016 206.933 14.3016C206.436 14.2451 205.949 14.1284 205.48 13.9543C204.961 13.8722 204.449 13.7467 203.95 13.579C203.456 13.3325 203.49 13.4726 203.277 13.0188C203.064 12.5651 203.417 12.7779 203.523 12.2625C203.62 11.8551 203.669 11.4377 203.669 11.0189C203.703 10.2627 203.35 10.4587 202.991 10.0218C202.765 9.69171 202.579 9.33637 202.436 8.96304C202.116 8.40285 202.436 8.40285 202.508 7.79224C202.581 7.18163 202.895 7.48414 203.215 7.34409C203.535 7.20404 203.714 7.20404 203.748 6.7839C203.781 6.36376 203.411 6.55422 202.996 6.16209C202.581 5.76996 202.536 5.71394 202.11 5.8876C201.684 6.06126 201.897 6.22931 201.432 6.1957C200.966 6.16209 201.14 6.16209 200.753 5.6019C200.366 5.04171 200.647 4.98569 200.4 4.39749C200.153 3.80929 199.901 3.91573 199.228 3.70846C198.555 3.50119 198.869 3.32753 198.667 2.95221C198.465 2.57688 198.308 1.94947 197.989 1.98308C197.669 2.01669 197.882 2.22956 197.843 2.57128C197.843 2.97936 197.904 3.38516 198.022 3.77568C198.168 4.53754 198.022 4.25745 197.776 4.60476C197.563 4.89365 197.385 5.20561 197.243 5.53468C196.923 6.15649 197.063 5.94922 196.604 6.09487C196.144 6.24052 196.144 6.02204 195.482 5.36662C195.049 4.99056 194.751 4.48277 194.635 3.92133C194.476 3.5293 194.427 3.10102 194.495 2.68331C194.495 2.23516 194.248 1.92146 193.609 1.50692C192.97 1.09238 193.004 1.29965 192.577 0.946728C192.151 0.593809 191.332 0.431354 191.086 0.946728C190.839 1.4621 191.086 1.42849 191.299 2.3584C191.512 3.28832 191.618 2.77294 192.118 2.98021C192.617 3.18748 192.863 3.49559 192.757 3.66925C192.65 3.84291 192.258 3.70286 191.265 3.84291C190.273 3.98295 190.301 3.91013 189.807 4.21823C189.518 4.4548 189.179 4.62158 188.815 4.7056C188.422 4.77282 187.783 4.45911 186.785 4.73921C185.786 5.0193 186.005 5.11454 185.472 5.63551C184.94 6.15649 184.351 6.25172 183.79 6.90714C183.229 7.56256 183.65 7.25446 183.398 8.18437C183.145 9.11429 183.437 8.74456 183.65 9.66327C183.863 10.582 183.757 10.5596 183.543 10.8397C183.33 11.1198 183.117 11.1478 182.725 11.2878C182.134 11.5397 181.57 11.8513 181.042 12.2177C180.482 12.5931 180.656 12.4922 180.656 12.974C180.656 13.4558 180.869 13.2821 181.115 13.5958C181.362 13.9095 181.295 13.9711 181.295 14.3857C181.295 14.8002 181.222 14.733 180.902 14.9066C180.583 15.0803 180.123 14.9066 179.977 15.2484C179.831 15.5901 180.05 15.8085 180.224 16.1447C180.398 16.4808 180.583 16.5256 181.222 16.8001C181.861 17.0746 181.648 17.0074 182.108 16.9737C182.568 16.9401 182.641 17.1082 183.14 17.1418C183.639 17.1754 183.852 17.181 184.385 17.181C184.917 17.181 184.525 17.4219 184.844 17.7412C185.164 18.0605 185.024 18.1221 185.13 18.5703C185.237 19.0184 185.377 18.9456 185.411 19.3601C185.444 19.7747 185.411 19.6346 186.016 19.3938C186.622 19.1529 186.016 19.3938 186.443 19.1193C186.808 18.8954 187.202 18.722 187.615 18.6039C188.327 18.3238 188.736 18.3238 188.859 18.0829C188.983 17.842 188.859 17.6068 189.106 17.5227C189.353 17.4387 189.213 17.6628 189.392 17.2482C189.572 16.8337 189.712 16.6264 189.953 16.1279C190.194 15.6293 190.48 15.6797 190.873 15.4724C191.265 15.2652 191.299 15.2988 191.478 15.506C191.658 15.7133 191.512 15.887 192.039 15.9206C192.566 15.9542 192.325 15.887 192.818 15.6461C193.312 15.4052 193.104 15.4052 193.704 15.2988C194.304 15.1923 194.31 15.2988 194.63 15.5789C195.232 16.332 195.745 17.1515 196.161 18.0213C196.161 18.195 196.02 18.0549 195.768 18.0549C195.3 18.1458 194.826 18.2039 194.349 18.2286C194.097 18.1613 194.097 18.4694 194.097 18.6431C194.126 18.8749 194.103 19.1103 194.03 19.3321C193.911 19.5823 193.839 19.8518 193.817 20.1276C193.723 20.7542 193.686 21.3878 193.704 22.021C193.746 22.4307 193.686 22.8441 193.531 23.2255C193.351 23.6064 193.463 23.6736 193.104 23.9481C192.821 24.1816 192.612 24.4933 192.504 24.8444C192.286 25.2925 191.899 26.2281 191.753 26.4297C191.43 26.7879 191.087 27.1282 190.727 27.4493C190.267 27.5501 190.127 27.2756 189.807 27.0347C189.488 26.7939 189.381 26.553 189.022 26.2449C188.663 25.9368 188.988 25.8303 189.022 25.3094C189.056 24.7884 189.488 25.1413 190.093 24.794C190.699 24.4467 190.906 23.8977 191.372 23.3823C191.674 23.0534 191.881 22.6488 191.972 22.2115C191.955 21.989 191.889 21.7731 191.779 21.5793C191.668 21.3855 191.516 21.2187 191.332 21.0911C190.827 20.8463 190.304 20.6385 189.768 20.4693C189.207 20.2621 188.742 20.122 188.349 19.9539C187.957 19.7859 187.603 19.8811 187.497 20.2621C187.39 20.643 187.25 20.5702 187.211 20.8222C187.072 21.4317 186.699 21.9625 186.173 22.3011C185.534 22.6092 185.388 22.3011 184.396 22.7829C183.403 23.2647 183.97 23.2311 183.835 23.7856C183.7 24.3402 184.087 24.2338 184.581 24.3458C184.906 24.4094 185.228 24.4898 185.545 24.5867C185.899 24.6875 186.106 24.794 186.185 25.1021C186.263 25.4102 185.865 25.5894 185.186 25.8639C184.554 26.0914 183.9 26.2528 183.235 26.3457C182.564 26.4646 181.886 26.5339 181.205 26.553C180.499 26.5866 177.908 26.5194 177.442 26.8275C177.033 27.0552 176.563 27.1511 176.096 27.102C175.584 27.0729 175.084 26.9313 174.633 26.6874C174.164 26.5244 173.721 26.2921 173.321 25.9984C172.609 25.5502 172.967 25.5895 172.788 24.878C172.609 24.1666 172.541 24.189 172.435 23.7072C172.328 23.2255 172.042 23.1918 171.582 22.8445C171.123 22.4972 169.698 22.6765 169.379 22.6373C169.059 22.598 168.56 22.7101 168.257 22.6765C167.954 22.6429 166.973 22.7437 166.693 22.57C166.412 22.3964 165.487 21.7073 164.949 21.7466C164.41 21.7858 164.416 21.9482 163.883 22.57C163.459 23.0368 163.083 23.5455 162.762 24.0881C162.403 24.6483 162.016 24.4691 161.517 24.6483C161.025 24.7707 160.527 24.8642 160.025 24.9284C159.304 25.1271 158.621 25.4412 158.001 25.8583C157.395 26.2729 157.468 26.3401 157.003 26.8555C156.537 27.3709 155.69 27.6509 155.404 27.9254C155.118 28.1999 146.275 30.5415 146.169 30.4407C146.062 30.3399 145.849 30.2334 145.456 29.9253C145.065 29.6319 144.72 29.2827 144.43 28.889C144.038 28.3736 144.251 28.2335 144.105 27.6509C143.961 27.128 143.721 26.6362 143.398 26.2001C143.011 25.6536 142.446 25.2577 141.8 25.0797C141.455 24.9761 141.09 24.9531 140.735 25.0125C140.13 25.1585 139.536 25.3457 138.957 25.5726C138.105 25.8471 137.892 25.7799 137.432 26.0936C136.972 26.4073 136.507 27.3652 136.187 27.7462C135.98 28.1242 135.892 28.5556 135.935 28.9842C135.548 29.2979 134.695 29.2307 134.017 29.3315C133.338 29.4323 130.428 29.9197 130.091 29.9197C129.733 29.9272 129.386 30.0467 129.099 30.2614C128.508 30.6547 127.862 30.9569 127.181 31.1577C126.508 31.2922 126.362 30.5023 125.656 29.5388C124.949 28.5753 125.095 29.0178 124.585 28.5024C124.074 27.9871 124.125 28.1607 124.411 28.0543C124.697 27.9478 125.83 27.8134 126.396 27.7126C126.878 27.591 127.344 27.4163 127.787 27.1916C127.806 26.8699 127.793 26.5471 127.747 26.2281C127.639 25.8791 127.506 25.5384 127.349 25.2085C127.243 24.9676 126.424 24.6483 126.284 24.5531C125.833 24.4325 125.365 24.3871 124.899 24.4187C124.613 24.4859 124.719 24.7604 124.753 25.1077C124.787 25.455 124.54 25.483 124.293 25.6679C123.982 25.9168 123.65 26.138 123.301 26.3289C123.177 26.3747 123.042 26.3757 122.918 26.3316C122.793 26.2876 122.689 26.2014 122.622 26.088C122.555 25.948 122.375 25.5278 122.196 25.4326C122.016 25.3374 121.557 25.0181 121.344 25.0853C121.216 25.1485 121.105 25.2407 121.019 25.3545C120.933 25.4683 120.875 25.6006 120.85 25.7407C120.777 26.0488 120.777 26.2561 120.598 26.3009C120.314 26.3127 120.036 26.3812 119.779 26.5026C119.532 26.6762 116.05 29.9533 115.444 30.295C114.839 30.6368 114.917 30.8552 114.884 31.0569C114.85 31.2586 115.416 31.2586 115.596 31.225C115.775 31.1913 116.095 31.365 116.269 31.7851C116.442 32.2053 116.375 32.2333 116.128 32.575C115.882 32.9167 115.702 32.7487 115.007 33.0568C114.312 33.3649 114.614 33.4377 114.755 33.7458C114.895 34.0539 115.113 34.306 115.074 34.5749C115.035 34.8438 114.362 35.4712 113.953 35.9193C113.793 36.1148 113.582 36.2629 113.344 36.3478C113.106 36.4327 112.849 36.4511 112.601 36.4011C111.898 36.1919 111.246 35.8411 110.683 35.3704C110.539 35.2175 110.366 35.0955 110.173 35.0118C109.98 34.928 109.772 34.8842 109.562 34.883C109.209 34.8494 109.136 35.0903 108.962 35.2975C108.756 35.6705 108.623 36.0792 108.569 36.5019C108.536 36.782 108.889 36.4347 108.962 36.3003C109.035 36.1658 109.668 36.5411 109.882 36.6084C110.413 36.9528 110.924 37.3268 111.412 37.7287C111.309 37.9239 111.191 38.1112 111.059 38.2889C110.84 38.5285 110.572 38.7194 110.274 38.8491C109.898 38.9407 109.554 39.1346 109.282 39.4093C108.918 39.8277 108.527 40.2208 108.11 40.5857C107.517 40.9909 106.886 41.3362 106.225 41.6165C105.667 41.8525 105.084 42.0254 104.487 42.1318C104.061 41.9614 103.661 41.7334 103.298 41.454C103.152 41.3868 100.808 41.2523 100.808 41.2523C100.808 41.2523 98.5654 42.0086 98.4644 42.0086C98.1274 42.0462 97.8013 42.1509 97.5055 42.3167C97.3008 42.4935 97.0747 42.6441 96.8326 42.7648C96.6532 42.8377 96.227 42.9049 96.0475 42.7312C95.8681 42.5576 95.9073 41.975 95.8008 41.6109C95.6942 41.2467 95.055 41.1627 94.8083 41.0507C94.2766 40.9751 93.7412 40.9283 93.2045 40.9106C92.7446 40.8434 91.1465 40.9442 90.9614 40.6697C90.7764 40.3952 90.5745 38.9444 90.9614 38.569C91.3483 38.1937 93.0587 35.6729 92.8456 35.5664C92.6325 35.46 89.9689 35.6729 89.8287 35.3255C89.6885 34.9782 87.9052 33.8466 87.9052 33.8466C87.9052 33.8466 87.4454 34.4068 87.1987 34.7093C86.7914 35.087 86.3372 35.4108 85.8472 35.6729C85.3859 35.8103 84.9094 35.8912 84.4285 35.9137C83.9839 35.851 83.5512 35.7226 83.1444 35.5328C82.9313 35.432 81.5462 34.7429 81.1929 34.6365C80.4856 34.5072 79.7588 34.532 79.062 34.7093C78.6695 34.9166 77.1778 35.3984 76.8975 35.6729C76.6171 35.9473 76.8975 36.5692 77.2115 37.0173C77.502 37.5415 77.7065 38.1089 77.8171 38.6979C77.89 39.0116 77.5704 40.0087 77.2115 40.1096C76.9064 40.2323 76.6196 40.3963 76.3591 40.5969L76.0395 41.1571L73.9478 41.4652C73.9478 41.4652 73.9086 44.9832 73.6955 45.0504C73.4824 45.1176 72.4562 45.1905 72.3104 45.3977C72.1646 45.605 71.9908 47.224 71.7496 47.2912C71.5085 47.3584 71.0767 47.5657 70.6281 47.7729C70.1087 47.9489 69.6259 48.2185 69.2038 48.5684C69.0625 49.0502 69.1127 49.5679 69.344 50.0137C69.9571 50.1234 70.5858 50.112 71.1945 49.9801C71.8674 49.8064 71.1945 49.8064 71.7553 49.672C72.316 49.5375 75.6301 49.7056 76.1629 49.5319C76.5298 49.4413 76.8628 49.2468 77.1218 48.9717C77.8051 48.4104 78.6258 48.0411 79.4994 47.9018C80.3181 47.8682 82.7687 51.9688 82.5948 52.2433C82.421 52.5177 81.8434 52.5514 81.3499 52.6914C80.6057 52.8193 79.8698 52.9914 79.1461 53.2068C78.7536 53.414 79.0003 53.6885 78.9667 54.2431C78.933 54.7977 79.0003 55.2403 78.933 55.9237C78.8657 56.6071 78.6863 56.131 78.4732 56.1982C78.0416 56.3243 77.6011 56.4179 77.1554 56.4783C76.7151 56.5082 76.2769 56.5644 75.8432 56.6463C75.5486 56.7958 75.2383 56.9123 74.918 56.9937C74.536 57.0298 74.1595 57.1106 73.7964 57.2345C73.6562 57.3354 73.7291 57.5763 73.9759 58.1645C74.2226 58.7527 74.7217 59.9571 74.8619 60.2988C75.0021 60.6405 74.4357 62.9541 74.0488 63.5087C73.6619 64.0632 73.4095 63.7831 73.017 64.1641C72.6245 64.545 71.3795 65.9903 71.0263 66.3656C70.1979 67.1361 69.3193 67.851 68.3963 68.5055C67.8277 68.8419 67.2825 69.2162 66.7645 69.6259C66.5177 69.8276 67.0112 69.6931 67.0448 69.9676C67.0785 70.2421 67.6505 70.2421 67.6897 70.4494C67.729 70.6567 67.4374 70.7239 67.2243 71.0376C66.7158 71.69 66.1324 72.2803 65.4859 72.7966C64.5943 73.5192 63.3158 74.7909 62.5363 75.2726C61.8932 75.6125 61.1942 75.8345 60.4727 75.928C59.9474 76.1093 59.4819 76.4309 59.1269 76.858C59.0203 77.1325 59.5867 77.2389 59.9063 77.4182C60.226 77.5974 59.9792 77.7599 59.6203 78.1408C59.4656 78.2964 59.2736 78.41 59.0626 78.4708C58.8517 78.5316 58.6286 78.5375 58.4147 78.4881C57.8869 78.4365 57.3557 78.5438 56.8894 78.7962C56.3287 79.0707 56.1436 80.1743 55.9978 80.656C55.9978 80.656 55.7399 81.0258 55.6894 81.1322C55.6389 81.2386 55.8464 81.5972 55.9305 81.8044C56.0146 82.0117 56.8333 82.5271 56.8333 82.5271L56.9904 82.964C56.8706 83.1214 56.729 83.261 56.5698 83.3786C56.4352 83.429 56.2221 83.5354 55.8464 83.6867C55.515 83.865 55.1948 84.0633 54.8875 84.2805C54.5679 84.4653 54.2202 84.7734 53.8781 84.9583C53.4854 85.2033 53.1413 85.5185 52.8631 85.8882C52.68 86.1107 52.5359 86.3626 52.437 86.6333C52.3349 86.8915 52.2011 87.1361 52.0388 87.3615C51.9323 87.5128 50.1715 89.2718 49.7958 89.3222C49.4646 89.3982 49.143 89.5109 48.8369 89.6583C48.5397 89.7647 48.2481 89.8936 47.9565 90.0224C47.6649 90.1513 47.1826 90.4594 46.8349 90.5826C46.4873 90.7058 45.6125 91.1764 45.3994 91.2492C45.1863 91.3221 44.4909 91.5349 44.4909 91.5349C44.4909 91.5349 40.8404 91.899 40.7058 91.8206C40.5712 91.7422 40.0441 92.1567 39.803 92.3808C39.5618 92.6049 39.1917 92.7953 38.8945 93.053C38.4883 93.409 38.1131 93.7988 37.773 94.2182C37.3973 94.6832 37.0776 95.1706 36.8421 95.5067C36.6066 95.8428 36.758 96.022 36.758 96.2069C36.758 96.3918 36.8926 97.6522 37.0552 97.7306C37.2178 97.809 37.3188 98.4533 37.5038 98.8174C37.6889 99.1815 37.7954 99.2263 37.9861 99.54C38.1129 99.9128 38.1662 100.307 38.1431 100.7C38.1992 101.142 38.3282 101.658 38.3562 101.971C38.3842 102.285 38.0366 103.31 38.1431 103.596C38.2496 103.881 38.0366 104.318 38.0646 104.811C38.0756 105.182 38.0127 105.552 37.8795 105.898C37.7639 106.236 37.6214 106.564 37.4534 106.879C37.3188 107.215 36.9991 107.439 36.8926 107.579C36.7861 107.719 36.7356 108.301 36.6515 108.352C36.512 108.614 36.4665 108.917 36.5225 109.209C36.5806 109.453 36.6895 109.682 36.8421 109.881C37.0643 110.149 37.2685 110.432 37.4534 110.727C37.5599 110.884 38.0141 111.326 38.0141 111.663C38.0141 111.999 37.8515 111.92 37.745 112.155C37.5543 112.494 37.3308 112.813 37.0777 113.108C36.8141 113.444 36.6515 113.623 36.416 113.937C36.1563 114.231 35.869 114.499 35.558 114.738C35.323 114.918 35.0278 115 34.7337 114.968C34.4345 115.013 34.1399 115.084 33.8533 115.181C33.6962 115.231 33.214 115.304 33.214 115.304C33.0924 115.452 32.9941 115.619 32.9224 115.797C32.9069 115.925 32.9069 116.055 32.9224 116.183L32.5243 116.799C32.3201 116.951 32.1321 117.124 31.9635 117.315C31.7897 117.522 31.2906 117.797 31.0046 118.043L29.7989 119.04C29.5859 119.208 26.5297 120.278 25.997 120.586C25.4131 120.995 24.8515 121.434 24.3147 121.903C23.776 122.271 23.2141 122.604 22.6324 122.9C22.0899 123.257 21.5992 123.686 21.1744 124.177C20.7459 124.624 20.3434 125.096 19.9688 125.589C19.7557 125.897 18.8472 127.141 18.6902 127.309C18.5332 127.477 16.5593 129.034 16.1668 129.516C15.8773 129.901 15.5313 130.241 15.1406 130.524C14.7774 130.808 14.4345 131.117 14.1144 131.448C13.9686 131.588 11.9106 133.728 11.8713 133.863C11.8321 133.997 12.2302 134.311 12.3704 134.552C12.5106 134.793 13.0433 134.899 13.0433 134.899C13.0433 134.899 14.8939 136.692 15.1406 136.793C15.3873 136.893 15.1798 138.311 15.1069 138.412C15.034 138.512 14.7144 138.759 14.5742 138.692C14.434 138.624 14.148 138.412 13.649 138.893C13.4492 139.101 13.262 139.319 13.0882 139.549C12.7023 139.837 12.3554 140.174 12.0564 140.551C11.7869 140.979 11.6164 141.461 11.5573 141.963C11.5059 142.299 11.4347 142.632 11.3442 142.96C11.2152 143.272 11.0087 143.546 10.7442 143.756C10.2321 144.018 9.75376 144.342 9.31987 144.719C9.10678 145.027 9.14603 145.235 9.17968 145.716C9.21332 146.198 9.39277 146.097 9.53296 146.277C9.67315 146.456 9.77969 146.932 9.92549 147.173C10.0724 147.582 10.1297 148.017 10.0937 148.45C10.0601 148.73 9.60025 149.178 9.3479 149.571C9.09556 149.963 9.02827 150.293 8.70863 150.775C8.389 151.257 8.96098 151.29 9.13482 151.257C9.30865 151.223 9.95353 151.57 10.133 151.604C10.3124 151.638 11.2545 152.047 11.2545 152.047L13.4583 154.018C13.6657 154.361 13.9041 154.683 14.1705 154.982C14.4095 155.165 14.6912 155.285 14.9892 155.329C15.3425 155.329 15.0957 154.674 15.0957 154.674C15.0957 154.674 15.7686 154.707 15.8079 154.881C15.8949 155.324 15.9419 155.774 15.9481 156.226C15.8238 156.636 15.6178 157.017 15.3425 157.346C15.0957 157.688 14.6359 158.584 14.3836 158.864C14.0015 159.405 13.5857 159.921 13.1387 160.41C12.5779 160.97 12.9256 161.066 12.9256 161.447C12.9256 161.827 12.7854 162.236 12.7517 162.651C12.7123 162.945 12.5875 163.222 12.3928 163.446C12.3525 163.529 12.2925 163.6 12.2182 163.653C12.1439 163.707 12.0575 163.742 11.9667 163.755C11.8601 163.755 11.6134 164.068 11.4059 164.315C11.1984 164.561 11.4059 164.488 11.3723 164.696C11.3991 164.992 11.471 165.283 11.5854 165.558L11.7984 166.522C11.7984 166.522 9.98717 168.522 9.76848 168.628C9.55896 168.737 9.33062 168.806 9.09556 168.83C8.89498 168.834 8.69436 168.823 8.49554 168.796C8.38017 168.771 8.26003 168.776 8.14761 168.813C8.03518 168.849 7.93459 168.915 7.85627 169.003C7.67285 169.2 7.51634 169.421 7.39084 169.659C7.25065 169.933 6.32539 169.933 6.26931 169.833C6.00854 169.689 5.71442 169.618 5.41695 169.625C5.13657 169.625 4.74404 170.141 4.53095 170.314C4.26597 170.599 4.01698 170.898 3.78513 171.211C3.61481 171.413 3.42718 171.601 3.22437 171.771C2.97592 171.872 2.70531 171.907 2.4393 171.872C2.04581 171.887 1.65404 171.932 1.2673 172.006C1.02057 172.045 0.947669 172.387 0.87477 172.628C0.796421 172.862 0.749284 173.105 0.734579 173.351C0.794334 173.757 0.954278 174.142 1.20001 174.471C1.44675 174.818 1.51404 175.401 1.69348 175.507C1.9089 175.633 2.07204 175.832 2.15331 176.067C2.19027 176.194 2.2512 176.312 2.33275 176.415C2.23714 176.905 2.10595 177.388 1.94022 177.86C1.81835 178.278 1.62894 178.674 1.37946 179.031C1.16389 179.377 0.901605 179.692 0.599996 179.966C0.380085 180.199 0.200086 180.465 0.0672708 180.756C-0.0392742 180.964 -0.00562841 181.378 0.314007 181.378C0.633642 181.378 0.706541 181.311 1.09347 180.896C1.48039 180.482 1.4131 180.689 1.51965 180.689C1.62619 180.689 2.47855 180.274 2.69725 180.241C2.94499 180.215 3.19402 180.204 3.44307 180.207C3.57825 180.232 3.70878 180.277 3.82999 180.342C4.00944 180.409 4.22253 180.274 4.39076 180.342C4.60438 180.424 4.79622 180.554 4.95152 180.723C5.0913 180.877 5.25864 181.004 5.44499 181.098C5.62444 181.204 5.87678 180.964 6.12352 180.823C6.37025 180.683 6.15716 180.263 6.19081 180.134C6.24904 179.84 6.33349 179.551 6.44315 179.272C6.5479 179.075 6.72473 178.927 6.93662 178.857C6.93662 178.857 14.2938 180.241 14.3667 180.101C14.4396 179.961 15.0397 179.726 15.2527 179.619C15.5155 179.471 15.7892 179.344 16.0715 179.238C16.3355 179.142 16.5682 178.975 16.7444 178.756C16.9238 178.588 16.778 177.966 16.8509 177.345C16.8975 176.904 16.9686 176.466 17.064 176.034C17.1706 175.518 17.2435 175.619 17.2435 175.619C17.2435 175.619 17.7762 175.244 17.9164 175.104C18.0566 174.964 18.5893 174.863 18.8416 174.622C19.067 174.419 19.3177 174.246 19.5874 174.107C19.7669 174 19.7276 174.174 20.0136 174.14C20.4588 174.069 20.8902 173.93 21.2922 173.726C21.6454 173.519 21.9651 173.586 22.1782 173.451C22.4858 173.319 22.7729 173.144 23.0305 172.93C23.5296 172.521 23.6362 172.762 23.995 172.521C24.2494 172.388 24.4866 172.224 24.7016 172.034C25.1088 171.567 25.4835 171.073 25.8231 170.555C26.0412 170.234 26.1866 169.869 26.2493 169.485C26.3032 169.19 26.3276 168.889 26.3222 168.589C26.3559 168.281 26.6026 167.732 26.5353 167.592C26.2493 167.312 25.9398 167.057 25.61 166.83C25.4698 166.729 25.1502 166.903 25.0044 166.936C24.8091 167.038 24.6216 167.154 24.4437 167.284C24.2979 167.351 23.9446 167.732 23.7651 167.844C23.5857 167.956 23.3053 168.499 23.1651 168.6C23.0952 168.655 23.0105 168.689 22.9216 168.696C22.8327 168.703 22.7437 168.683 22.666 168.639C22.4551 168.395 22.3188 168.096 22.2735 167.777C22.2062 167.329 21.8137 166.981 21.7127 166.74C21.5844 166.322 21.4778 165.898 21.3931 165.469C21.3595 165.329 20.9669 164.673 20.8323 164.432C20.7371 163.921 20.6883 163.401 20.6865 162.881L23.4904 156.954C23.6642 156.78 24.0904 156.506 24.3427 156.298C24.5726 156.162 24.8253 156.069 25.0885 156.024C25.2287 155.951 25.868 155.682 26.2101 155.509C26.602 155.355 27.0076 155.239 27.4213 155.161C27.668 155.094 28.5428 154.988 28.9129 154.853C29.283 154.719 30.2251 154.545 30.6513 154.405C31.0775 154.265 31.6495 154.164 31.8962 154.058C32.1429 153.951 32.8887 153.542 33.0177 153.497C33.1467 153.453 34.6159 152.708 34.6159 152.708C34.6159 152.708 37.6721 152.394 38.1319 152.147C38.4862 151.945 38.8625 151.783 39.2534 151.666C39.7132 151.526 40.7787 151.217 41.0983 151.077C41.418 150.937 44.9732 150.355 44.9732 150.355L50.1939 150.388C50.4463 150.388 51.7248 150.596 51.7248 150.596C51.7248 150.596 58.7904 150.943 59.3231 150.629C59.8559 150.316 59.8839 150.562 60.1418 150.495C60.3998 150.428 60.854 151.055 60.9213 151.15C61.3081 151.829 61.735 152.483 62.1998 153.111C62.3456 153.145 62.5587 154.007 62.6989 154.108C62.9536 154.524 63.1339 154.981 63.2317 155.458C63.2709 155.733 63.0522 155.665 62.912 155.766C62.7718 155.867 62.4185 156.007 62.1998 156.175C61.9494 156.367 61.7132 156.577 61.4933 156.803C61.3867 156.937 60.6746 157.66 60.6746 157.867C60.7377 158.152 60.7864 158.44 60.8204 158.73C60.8548 159.033 60.9501 159.327 61.1008 159.592C61.2073 159.9 61.2073 159.867 61.454 160.007C61.8384 160.155 62.2131 160.327 62.5756 160.522C62.6429 160.623 62.5363 161.004 62.5363 161.082C62.6351 161.417 62.7666 161.742 62.9288 162.052C63.069 162.326 63.2148 162.259 63.4279 162.152C63.641 162.046 63.8205 162.393 64.1737 162.673C64.527 162.953 65.099 163.53 65.2953 163.704C65.4915 163.878 66.714 165.289 66.714 165.289C66.714 165.289 66.8934 165.631 67.0336 165.85C67.1738 166.068 67.1065 166.41 67.1065 166.774C67.071 167.09 66.9738 167.397 66.8205 167.676C66.7476 167.844 65.5084 169.054 65.5084 169.054C65.5084 169.054 65.2224 169.429 64.9027 169.81C64.5831 170.191 64.4765 170.326 64.2635 170.606C64.0504 170.886 64.1233 171.564 63.8709 172.426C63.6186 173.289 63.8036 173.188 63.8709 173.547C63.9382 173.905 63.7644 174.168 63.7644 174.667C63.8015 175.127 63.8015 175.59 63.7644 176.051C63.6971 176.325 62.6429 177.255 62.5195 177.53C62.3753 177.818 62.304 178.137 62.312 178.459C62.3793 178.667 62.1999 179.115 62.312 180.011C62.4242 180.908 62.5924 180.84 62.7326 180.98C62.8728 181.12 63.1588 181.54 63.3775 181.703C63.5458 181.892 63.7695 182.023 64.0167 182.078C64.2971 182.112 65.4018 182.151 65.6149 182.151C65.828 182.151 68.3851 182.666 68.5253 182.666C68.6655 182.666 69.3776 182.633 69.5907 182.633C69.8038 182.633 70.0561 183.249 70.0561 183.249C69.5684 183.759 69.1169 184.301 68.7047 184.874C68.5982 185.148 68.3851 185.523 68.3122 185.764C68.2919 185.847 68.291 185.934 68.3095 186.018C68.328 186.101 68.3653 186.179 68.4187 186.246C68.5898 186.457 68.7773 186.653 68.9795 186.834C68.96 187.11 68.9581 187.387 68.9739 187.663C68.9807 187.977 68.9449 188.29 68.8673 188.593C68.7944 188.935 68.4748 189.243 68.3346 189.557C68.1944 189.871 68.0486 190.179 68.015 190.279C68.0763 190.572 68.2092 190.846 68.4019 191.075C68.6926 191.086 68.9826 191.039 69.2542 190.935C69.9335 190.809 70.5999 190.622 71.245 190.375C71.4917 190.173 71.4581 190.134 71.6039 189.893C71.7496 189.652 72.1646 189.719 72.2431 189.719C72.3216 189.719 72.8431 190.24 72.9889 190.375C73.1347 190.509 73.5497 191.069 73.6955 191.305C73.8413 191.54 74.1217 191.792 74.4077 192.167C74.5931 192.396 74.7599 192.64 74.9068 192.896C75.1535 193.304 75.4002 193.372 75.546 193.585C75.6918 193.797 75.6133 194.234 75.6862 194.341C75.7591 194.447 75.6133 194.901 75.7199 195.136C75.8122 195.378 75.9897 195.577 76.2189 195.696C76.5435 195.877 76.9135 195.961 77.2844 195.937C77.6164 195.893 77.954 195.916 78.2769 196.005C78.5966 196.111 78.6695 196.867 78.8377 197.248C79.0059 197.629 78.7985 197.59 78.6246 198.145C78.5252 198.493 78.5117 198.86 78.5854 199.214C78.6299 199.503 78.7678 199.768 78.9779 199.971C79.2392 200.198 79.5419 200.373 79.8695 200.486C79.9761 200.486 80.1162 201.282 80.1891 201.522C80.1991 202.19 80.1747 202.857 80.1162 203.522C80.1162 203.73 80.1891 204.413 80.2228 204.643C80.3167 204.918 80.4743 205.168 80.6826 205.371C80.8298 205.522 80.9511 205.696 81.0415 205.886C81.148 206.094 81.3611 206.161 81.6023 206.542C81.8434 206.923 82.2079 207.158 82.3144 207.102C82.421 207.046 83.593 208.783 83.6995 208.827C83.7714 208.874 83.8331 208.935 83.8812 209.007C83.9294 209.078 83.9629 209.158 83.9799 209.242C84.0328 209.521 84.1059 209.796 84.1986 210.065C84.3177 210.562 84.3649 211.073 84.3388 211.583C84.3388 212.172 84.5855 212.239 84.7257 212.239C84.9443 212.195 85.1597 212.137 85.3706 212.065C85.6274 212.013 85.8775 211.932 86.1164 211.824C86.3866 211.631 86.6265 211.399 86.8286 211.135C87.0753 210.861 87.2492 210.827 87.5015 210.547C87.6322 210.449 87.7838 210.383 87.9443 210.354C88.1049 210.325 88.27 210.334 88.4268 210.379C88.7997 210.41 89.1741 210.421 89.5483 210.413C89.9072 210.413 90.0137 210.861 90.1539 210.928C90.2941 210.995 90.367 211.309 90.7147 211.309C91.0623 211.309 91.0736 211.169 91.2754 210.995C91.4773 210.822 91.6287 210.721 91.7689 210.586C91.8876 210.434 91.9945 210.273 92.0885 210.105C92.1951 209.965 92.6213 209.343 92.7671 209.309C92.9129 209.275 95.6438 209.376 95.9971 209.203C96.3503 209.029 96.3559 209.135 96.5578 208.928C97.0268 208.303 97.4539 207.648 97.8364 206.967C98.0539 206.563 98.3561 206.209 98.7224 205.931C98.9355 205.757 99.1822 205.69 99.4682 205.483C99.7542 205.276 100.029 205.589 100.147 205.757C100.264 205.926 100.607 205.965 100.926 205.931C101.263 205.912 101.6 205.959 101.919 206.071C102.025 206.138 103.556 206.245 103.663 206.346C103.781 206.473 103.886 206.612 103.977 206.76C104.214 206.893 104.466 206.997 104.728 207.068C104.728 207.068 105.508 207.55 105.614 207.343C105.721 207.136 106.22 207.931 106.399 207.903C106.579 207.875 106.539 207.903 106.719 207.623C106.87 207.225 107.072 206.849 107.319 206.503C107.639 206.194 107.639 206.026 108.104 205.987C108.569 205.948 108.665 205.679 108.99 205.505C109.315 205.332 109.276 205.265 109.523 205.091C109.704 204.958 109.871 204.808 110.022 204.643C110.196 204.469 110.235 204.161 110.583 203.853C110.93 203.545 110.762 203.679 111.009 203.646C111.255 203.612 111.508 203.752 111.895 203.545C112.282 203.337 112.394 203.197 112.893 202.923C113.215 202.782 113.514 202.594 113.779 202.363C114.138 202.055 114.34 202.021 114.491 201.881C114.642 201.741 115.484 201.192 115.702 201.259C116.098 201.456 116.552 201.506 116.981 201.399C117.407 201.192 117.368 200.839 117.542 200.436C117.715 200.032 117.575 199.315 117.648 198.884C117.721 198.453 117.788 198.262 118.001 198.088C118.281 197.94 118.582 197.836 118.893 197.78C118.893 197.78 119.706 198.055 120.065 198.161C120.424 198.268 120.385 198.469 120.458 198.576C120.614 198.986 120.792 199.388 120.99 199.78C121.147 199.997 121.372 200.155 121.63 200.228C121.901 200.331 122.192 200.377 122.482 200.363C122.885 200.303 123.268 200.151 123.603 199.92C124.044 199.785 124.497 199.691 124.955 199.64C125.554 199.537 126.167 199.537 126.766 199.64C127.052 199.78 126.906 200.055 127.192 200.396C127.478 200.738 127.366 200.744 127.652 201.018C127.938 201.293 128.045 201.466 128.398 201.578C128.751 201.691 129.144 201.747 129.144 201.747C129.144 201.747 129.609 202.307 129.962 202.368C130.316 202.43 130.035 202.542 130.142 202.682C130.248 202.822 130.176 203.164 130.248 203.438C130.307 203.756 130.343 204.079 130.355 204.402C130.389 204.749 130.422 204.676 130.675 204.749C131.019 204.825 131.379 204.788 131.701 204.643C132.2 204.469 132.127 204.469 132.346 204.228C132.529 203.964 132.742 203.722 132.979 203.506C133.265 203.298 133.372 203.506 133.692 203.573C134.011 203.64 133.944 203.886 134.157 204.027C134.517 204.199 134.892 204.336 135.279 204.435C135.519 204.55 135.768 204.644 136.024 204.716C136.31 204.749 137.516 205.78 137.875 205.505C138.234 205.231 138.155 205.438 138.436 205.197C138.716 204.956 138.968 205.124 139.288 205.057C139.602 205.046 139.916 205.094 140.213 205.197C140.46 205.231 141.896 205.265 141.896 205.265C142.11 205.162 142.312 205.034 142.496 204.884C142.675 204.716 142.714 204.402 142.714 203.92C142.714 203.438 142.782 202.923 142.748 202.027C142.747 201.496 142.712 200.967 142.641 200.441C142.629 200.023 142.753 199.612 142.995 199.271C143.207 198.831 143.445 198.405 143.707 197.993C144.017 197.681 144.404 197.455 144.828 197.338C144.828 197.338 147.139 197.271 147.352 197.237C147.565 197.203 150.548 197.405 150.716 197.131L151.07 196.442C151.268 196.092 151.549 195.795 151.888 195.579C152.242 195.304 152.668 195.019 152.634 194.548C152.6 194.134 152.6 193.718 152.634 193.304C152.668 192.744 152.993 192.615 153.307 192.274C153.621 191.932 154.272 191.792 154.591 191.478C154.911 191.165 154.698 191.064 154.659 190.823C154.574 190.54 154.443 190.273 154.272 190.033C154.092 189.719 153.952 189.579 153.739 189.17C153.526 188.761 153.739 188.689 153.739 188.1C153.739 187.512 153.845 187.652 154.019 187.036C154.161 186.555 154.419 186.116 154.771 185.759C155.158 185.199 155.516 185.585 155.763 185.484C156.01 185.383 156.761 185.311 157.255 185.137C157.748 184.963 158.034 185.137 158.376 185.002C158.724 184.908 159.082 184.861 159.442 184.862C159.728 184.829 159.655 184.689 159.868 184.381C160.081 184.073 159.975 183.759 160.008 183.176C160.009 183.021 160.041 182.868 160.103 182.725C160.164 182.583 160.254 182.454 160.367 182.347C160.681 182.067 161.072 181.888 161.489 181.832C161.954 181.765 161.92 181.865 162.128 181.725C162.355 181.505 162.544 181.25 162.689 180.969C163.072 180.533 163.373 180.029 163.575 179.485C163.788 178.762 163.468 178.924 163.468 178.314C163.468 177.703 163.575 177.798 163.788 177.317C163.958 176.937 164.054 176.528 164.068 176.112C164.077 175.71 163.953 175.316 163.715 174.992C163.441 174.563 163.132 174.158 162.79 173.782C162.658 173.67 162.549 173.533 162.47 173.38C162.391 173.226 162.343 173.058 162.33 172.886C162.251 172.595 162.092 172.333 161.87 172.129C161.608 171.914 161.369 171.672 161.158 171.407C161.051 171.199 159.027 170.404 158.954 170.169C158.881 169.933 159.274 167.065 159.515 166.892C159.756 166.718 159.661 166.684 159.947 166.303C160.233 165.922 160.16 166.062 160.373 165.743C160.586 165.424 160.479 165.536 160.799 165.054C161.015 164.739 161.277 164.46 161.578 164.225C161.937 163.878 161.971 164.051 162.324 163.984C162.513 163.941 162.711 163.965 162.885 164.051C162.885 164.051 162.919 164.191 163.238 164.225C163.558 164.259 163.664 164.331 163.984 164.365C164.304 164.399 164.41 164.399 165.442 163.917C166.474 163.435 165.762 163.676 166.255 163.357C166.749 163.037 166.575 163.15 166.816 162.981C167.057 162.813 167.135 162.533 167.276 162.119C167.416 161.704 167.595 161.43 167.702 161.155C167.846 160.841 168.052 160.559 168.308 160.326C168.7 159.878 168.767 160.119 168.913 160.085C169.492 159.772 170.054 159.428 170.595 159.055C170.881 158.847 171.128 159.088 171.268 158.881C171.409 158.674 171.308 158.567 171.308 158.466C171.314 158.086 171.375 157.709 171.487 157.346C171.627 156.965 171.734 157.279 172.16 157.038C172.586 156.797 172.939 157.038 173.405 156.931C173.776 156.821 174.092 156.575 174.291 156.242C174.397 156.069 174.79 155.346 174.93 155.072C175.082 154.697 175.178 154.303 175.216 153.901C175.216 153.727 174.824 153.419 174.504 153.178C174.184 152.937 173.971 152.058 173.898 151.834C173.851 151.459 173.876 151.079 173.971 150.713C174.044 150.607 174.61 150.4 174.751 150.506C174.945 150.633 175.133 150.772 175.311 150.921C175.391 150.993 175.488 151.044 175.593 151.068C175.699 151.091 175.808 151.087 175.911 151.055C176.125 150.954 176.27 150.54 176.377 150.299C176.483 150.058 176.769 149.61 176.803 149.47C177.072 149.136 177.368 148.825 177.689 148.54C178.082 148.125 178.188 147.98 178.401 147.924C178.766 147.763 179.141 147.624 179.523 147.509C179.979 147.423 180.421 147.272 180.835 147.061C181.048 146.882 182.753 146.646 183.285 146.439C183.55 146.31 183.844 146.25 184.138 146.265C184.424 146.333 184.603 146.265 184.816 146.506C185.029 146.747 185.029 147.066 185.136 147.268C185.22 147.698 185.256 148.136 185.243 148.573C185.276 149.055 185.17 149.436 185.209 149.817C185.248 150.198 185.31 150.747 185.383 151.369C185.456 151.991 185.562 152.68 185.562 153.089C185.562 153.497 185.702 155.223 185.669 155.637C185.654 156.203 185.714 156.768 185.848 157.318C185.925 157.807 185.948 158.303 185.915 158.797C185.915 159.211 185.669 159.357 185.456 159.693C185.195 160.075 184.969 160.48 184.783 160.903C184.564 161.419 184.39 162.108 184.138 162.584C183.885 163.06 184.104 163.065 184.177 163.446C184.25 163.827 184.424 163.721 184.497 164.068C184.575 164.353 184.682 164.629 184.816 164.892C184.923 165.166 185.456 165.581 185.596 165.754C185.83 166.132 185.976 166.557 186.022 166.998C186.056 167.441 185.702 167.413 185.416 167.653C185.112 167.921 184.849 168.232 184.637 168.578C184.497 168.858 184.957 168.824 185.349 168.891C185.742 168.959 185.669 169.2 185.988 169.272C186.308 169.345 186.168 169.648 186.168 169.995C186.195 170.272 186.279 170.541 186.415 170.785C186.487 170.992 187.16 171.199 187.301 171.267C187.441 171.334 190.856 171.855 191.035 171.855C191.215 171.855 191.674 172.443 191.674 172.443C191.674 172.443 191.708 173.126 191.674 173.563C191.719 174.06 191.864 174.542 192.101 174.981C192.275 175.429 192.633 175.804 192.774 176.252C193.031 176.761 193.381 177.217 193.805 177.597C194.14 177.885 194.495 178.151 194.865 178.392C195.336 178.642 195.823 178.859 196.323 179.042C196.536 179.181 196.708 179.375 196.822 179.602C196.895 179.81 196.789 180.571 196.862 180.88C196.934 181.188 196.895 182.498 197.002 182.672C197.119 182.78 197.262 182.857 197.417 182.893C197.573 182.929 197.735 182.925 197.888 182.879C198.207 182.773 198.746 182.638 199.273 182.465C199.8 182.291 199.985 182.913 200.305 182.879C200.624 182.846 200.837 182.98 201.37 183.187C201.778 183.386 202.155 183.64 202.492 183.944C202.705 184.084 203.877 184.566 203.877 184.566C204.055 184.365 204.209 184.145 204.337 183.91C204.337 183.809 208.352 184.425 208.352 184.599C208.352 184.773 208.744 184.566 209.025 184.599C209.305 184.633 209.277 184.98 209.49 185.12C209.703 185.26 211.408 184.98 211.587 185.081C211.825 185.179 212.077 185.237 212.333 185.255C212.7 185.392 213.045 185.581 213.359 185.815C213.679 185.983 213.999 186.498 214.251 186.571C214.503 186.644 214.744 187.131 215.103 187.226C215.462 187.322 215.35 187.708 215.496 188.05C215.642 188.392 215.529 188.257 215.35 188.464C215.219 188.613 215.076 188.752 214.924 188.879C214.817 188.985 214.212 190.739 214.105 190.845C213.998 190.952 213.572 191.568 213.359 191.842C213.146 192.117 212.798 192.739 212.44 193.187C212.17 193.568 211.931 193.971 211.727 194.391C211.444 194.802 211.135 195.195 210.802 195.568C210.681 195.715 210.591 195.885 210.536 196.068C210.481 196.251 210.463 196.442 210.483 196.632C210.449 197.08 210.696 196.946 210.802 197.047C211.188 197.125 211.58 197.172 211.974 197.187C212.424 197.265 212.886 197.24 213.326 197.114C213.718 196.979 213.886 197.187 214.144 197.22C214.402 197.254 215.266 198.117 215.636 198.083C216.006 198.049 216.275 198.458 216.449 198.598C216.772 198.81 217.118 198.983 217.481 199.114C217.733 199.186 218.266 199.629 218.793 199.321C218.941 199.259 219.071 199.16 219.169 199.034C219.267 198.907 219.331 198.757 219.354 198.598C219.448 199.006 219.459 199.429 219.387 199.842C219.339 200.286 219.328 200.734 219.354 201.181C219.315 202.01 219.673 201.943 219.814 202.559C219.969 203.145 220.197 203.71 220.492 204.239C220.666 204.601 220.919 204.919 221.232 205.169C221.378 205.309 222.763 208.923 222.915 209.163C223.066 209.404 223.021 209.617 222.982 209.886C222.943 210.155 222.702 210.233 222.236 210.648C221.889 210.986 221.581 211.362 221.316 211.768C220.976 212.166 220.689 212.607 220.464 213.079C220.318 213.454 220.391 213.595 220.565 213.639C220.979 213.563 221.384 213.449 221.776 213.298C222.169 213.191 223.408 213.057 223.554 212.95C223.7 212.844 223.868 213.124 224.014 213.191C224.16 213.258 224.193 213.505 224.406 213.539C224.619 213.572 224.58 213.572 224.9 213.331C225.219 213.09 225.186 213.298 225.432 213.023C225.679 212.749 225.646 212.883 225.859 212.883C226.072 212.883 226.072 213.124 226.29 213.225C226.509 213.326 226.537 213.505 226.571 213.88C226.604 214.256 226.537 214.194 226.711 214.362C227.031 214.57 227.401 214.69 227.782 214.709C228.437 214.635 229.08 214.485 229.7 214.261C229.874 214.127 229.913 213.987 229.947 213.471C229.98 212.956 229.806 212.883 229.7 211.92C229.593 210.956 229.84 211.572 230.193 211.231C230.496 210.896 230.747 210.518 230.939 210.11C231.186 209.696 231.186 209.662 231.365 209.315C231.549 208.865 231.704 208.405 231.831 207.937C231.908 207.651 232.039 207.383 232.218 207.147C232.447 206.796 232.635 206.42 232.778 206.026C232.918 205.685 232.93 205.306 232.812 204.956C232.739 204.856 232.279 204.889 232.066 204.816C231.853 204.744 231.506 204.716 231.287 204.648C231.205 204.613 231.134 204.556 231.084 204.482C231.033 204.409 231.004 204.323 231.001 204.234C231.001 204.127 230.928 203.713 230.928 203.713C230.734 203.709 230.542 203.663 230.367 203.578C230.09 203.437 229.79 203.345 229.481 203.304C229.089 203.237 228.769 203.337 228.483 203.097C228.197 202.856 228.376 202.856 228.13 202.508C227.986 202.275 227.806 202.065 227.597 201.887C227.384 201.719 227.451 201.326 227.451 201.164C227.451 201.001 227.558 200.2 227.631 199.405C227.704 198.609 227.67 197.926 227.704 197.584C227.737 197.243 227.81 195.825 227.776 195.652C227.743 195.478 228.057 194.033 228.057 193.685C228.057 193.338 227.631 193.17 227.524 192.929C227.418 192.688 227.132 192.548 227.064 192.307C226.948 192.019 226.863 191.718 226.812 191.411C226.745 190.929 226.812 191.17 226.958 190.795C227.104 190.42 227.171 190.481 227.558 189.865C227.945 189.249 227.844 189.518 228.416 189.137C228.802 188.907 229.22 188.734 229.655 188.621C229.975 188.487 231.472 188.173 231.685 188.061C231.898 187.949 231.825 187.647 231.999 187.299C232.151 186.822 232.212 186.32 232.178 185.82C232.178 185.406 232.251 184.543 232.251 184.14C232.251 183.736 231.965 183.58 231.859 183.344C231.794 182.978 231.857 182.6 232.038 182.274C232.183 182.106 232.365 181.976 232.571 181.893C232.745 181.793 232.964 181.86 233.39 181.658C233.816 181.456 233.743 181.518 234.169 181.311C234.595 181.104 234.595 180.795 234.949 180.347C235.302 179.899 235.661 179.311 235.947 179.003C236.233 178.695 236.373 178.443 236.693 178.107C237.012 177.77 237.012 177.418 237.579 176.986C238.145 176.555 238.364 176.88 238.896 176.779C239.429 176.678 240.349 176.644 240.579 176.572C240.809 176.499 240.898 175.849 240.932 175.3C240.939 174.804 240.974 174.308 241.038 173.816C241.111 173.507 240.898 173.093 241.005 172.986C241.202 172.84 241.36 172.648 241.465 172.426C241.644 172.045 241.678 172.146 241.925 171.905C242.171 171.664 242.21 171.53 242.104 171.149C241.997 170.768 242.104 171.149 242.244 170.734C242.384 170.32 242.53 170.634 242.777 170.46C243.024 170.286 243.276 170.533 243.596 170.46C243.915 170.387 243.809 170.359 243.915 170.085C244.022 169.81 243.954 169.67 243.915 169.289C243.889 168.806 243.914 168.322 243.988 167.844C244.039 167.431 244.039 167.013 243.988 166.6C243.982 166.466 244.004 166.333 244.053 166.208C244.102 166.083 244.178 165.971 244.274 165.878C244.341 165.738 244.768 165.289 244.981 164.948C245.194 164.606 245.659 163.945 245.872 163.67C246.085 163.396 247.151 161.844 247.151 161.57C247.137 161.287 247.185 161.004 247.291 160.741C247.431 160.365 247.543 160.365 247.79 160.085C247.999 159.873 248.125 159.593 248.143 159.295C248.177 158.987 248.11 158.399 248.11 157.985C248.118 157.62 248.018 157.262 247.824 156.954C247.602 156.678 247.323 156.454 247.005 156.298C246.758 156.226 246.545 155.436 246.259 155.178C245.973 154.92 246.192 155.004 246.192 154.657C246.192 154.31 246.439 154.142 246.579 153.901C246.719 153.66 246.792 153.212 246.652 153.145C246.512 153.077 246.405 152.523 246.153 152.024C245.9 151.526 246.153 151.402 246.153 151.195C246.182 150.951 246.231 150.709 246.298 150.472C246.312 150.354 246.3 150.235 246.263 150.122C246.226 150.009 246.166 149.905 246.085 149.817C245.757 149.551 245.374 149.36 244.964 149.257C244.525 149.179 244.128 148.949 243.842 148.607C243.483 148.192 243.59 147.851 243.483 147.537C243.377 147.223 243.59 146.882 243.663 146.607C243.839 146.272 244.11 145.995 244.442 145.812C244.622 145.744 245.614 145.251 245.827 145.123C246.041 144.994 248.811 140.574 248.917 140.507C249.052 140.432 249.195 140.374 249.343 140.333C249.593 140.302 249.844 140.29 250.095 140.299C250.354 140.285 250.606 140.214 250.835 140.092C251.054 139.991 251.62 140.232 251.833 140.266C252.002 140.267 252.169 140.29 252.332 140.333C252.63 140.49 252.903 140.688 253.145 140.921C253.185 141.028 255.349 144.058 255.349 144.058C255.574 144.079 255.8 144.067 256.022 144.025C256.134 143.952 256.134 143.784 256.168 143.571C256.207 143.224 256.267 142.88 256.347 142.54C256.43 142.213 256.56 141.9 256.734 141.61C256.887 141.403 257.077 141.226 257.295 141.089C257.551 140.842 257.822 140.612 258.108 140.4C258.327 140.299 259.23 139.717 259.639 139.75C260.048 139.784 259.813 140.059 259.852 140.232C259.891 140.406 259.746 142.333 259.712 142.574C259.678 142.815 259.353 144.333 259.353 144.641C259.353 144.949 259.174 145.761 259.213 145.985C259.252 146.209 259.213 147.229 259.246 147.985C259.28 148.741 259.174 148.982 259.426 149.503C259.642 149.969 259.773 150.47 259.813 150.982C259.84 151.569 259.818 152.158 259.746 152.741C259.746 152.741 259.499 153.397 259.46 153.604C259.473 153.748 259.537 153.883 259.639 153.985C259.741 154.087 259.876 154.15 260.02 154.164C260.333 154.252 260.623 154.405 260.873 154.612C261.023 154.721 261.192 154.803 261.372 154.853C261.585 154.926 261.764 155.234 262.263 155.301C262.762 155.368 262.65 155.716 262.824 155.817C262.998 155.917 263.144 156.164 263.318 156.27C263.535 156.485 263.684 156.76 263.744 157.06C263.777 157.268 264.635 158.472 264.742 158.741C264.849 159.01 265.449 159.805 265.449 159.912C265.52 160.205 265.642 160.483 265.807 160.735C265.948 160.909 266.267 161.015 266.48 161.256C266.913 161.52 267.4 161.685 267.905 161.738C268.118 161.738 270.355 162.858 270.462 162.769C270.568 162.679 272.021 162.634 272.34 162.567C272.66 162.5 273.198 162.769 273.512 162.668C273.826 162.567 274.045 162.393 274.297 162.32C274.676 162.115 275.032 161.873 275.363 161.598C275.503 161.493 275.664 161.417 275.834 161.376C276.005 161.335 276.182 161.328 276.355 161.357C276.608 161.424 276.462 161.564 276.641 161.805C276.821 162.046 276.894 162.012 277.174 161.945C277.419 161.896 277.671 161.883 277.92 161.906C278.166 161.939 278.406 162.009 278.632 162.113C278.772 162.147 278.985 161.738 279.131 161.631C279.325 161.46 279.482 161.25 279.591 161.015C279.737 160.735 279.524 160.528 279.484 160.253C279.445 159.979 279.131 160.046 278.952 159.979C278.863 159.935 278.786 159.872 278.725 159.794C278.664 159.717 278.62 159.627 278.598 159.531C278.526 159.323 278.739 159.29 278.845 159.183C278.999 159.006 279.109 158.795 279.165 158.567C279.19 158.356 279.237 158.147 279.305 157.945C279.328 157.588 279.317 157.23 279.271 156.875C279.271 156.5 279.557 156.567 279.737 156.315C279.916 156.063 280.124 156.242 280.298 156.282C280.503 156.279 280.702 156.35 280.858 156.483C281.13 156.786 281.428 157.064 281.75 157.312C282.245 157.555 282.807 157.628 283.348 157.52C283.701 157.346 283.909 157.139 284.374 156.898C284.84 156.657 285.193 156.069 285.406 155.934C285.779 155.589 286.124 155.214 286.438 154.814C286.562 154.687 286.712 154.589 286.877 154.524C287.043 154.459 287.22 154.43 287.397 154.439C287.576 154.439 290.487 154.539 290.554 154.399C290.621 154.259 290.773 154.091 290.879 153.884C290.986 153.677 291.126 153.57 291.518 153.262C291.623 153.186 291.722 153.104 291.816 153.016C291.994 152.927 292.182 152.859 292.376 152.814C292.522 152.814 292.522 153.021 292.803 153.128C293.083 153.234 293.055 153.469 293.229 153.609C293.403 153.75 293.375 154.17 293.408 154.265C293.442 154.36 293.728 154.366 293.907 154.366C294.087 154.366 294.12 154.091 294.294 153.985C294.468 153.878 294.474 153.744 294.547 153.609C294.667 153.426 294.838 153.282 295.04 153.195C295.219 153.128 295.539 152.747 295.819 152.573C296.1 152.399 296.498 152.299 296.638 152.472C296.778 152.646 296.677 152.887 296.677 153.301C296.678 153.712 296.75 154.12 296.891 154.506C297.064 155.128 297.277 154.64 297.603 154.78C297.926 154.881 298.258 154.951 298.595 154.988C298.876 155.055 298.842 155.368 298.915 155.677C298.988 155.985 298.775 156.192 298.489 157.088C298.203 157.985 298.522 157.71 298.556 158.326C298.59 158.942 298.668 158.741 298.876 159.122C299.083 159.503 299.436 159.951 299.627 160.293C299.627 160.293 299.767 160.741 299.801 160.881C299.835 161.021 300.3 161.295 300.3 161.295L301.119 162.707C301.335 162.875 301.573 163.015 301.825 163.121C301.971 163.121 302.504 163.536 302.717 163.603C303.041 163.699 303.373 163.767 303.709 163.805C303.889 163.805 303.85 164.152 303.995 164.292C304.141 164.432 303.995 164.852 303.995 165.049C304.019 165.492 303.998 165.937 303.934 166.376C303.827 166.858 303.76 166.752 303.508 167.272C303.255 167.793 303.508 167.788 303.58 168.029C303.7 168.351 303.868 168.654 304.08 168.925C304.399 169.407 304.472 169.485 304.719 169.58C304.992 169.683 305.291 169.694 305.571 169.614C306.031 169.547 305.997 169.715 306.21 169.614C306.521 169.429 306.817 169.221 307.096 168.992C307.369 168.823 307.672 168.707 307.988 168.651C308.176 168.523 308.38 168.419 308.594 168.342C308.768 168.303 309.3 168.477 309.62 168.342C309.94 168.211 310.24 168.036 310.511 167.821C310.743 167.613 310.993 167.426 311.257 167.261C311.69 166.889 312.083 166.472 312.429 166.018C312.703 165.611 312.894 165.154 312.99 164.673C313.024 164.225 312.637 163.811 312.429 163.553C312.175 163.138 311.863 162.761 311.504 162.432C311.151 162.158 308.734 158.231 308.627 157.985C308.521 157.738 308.027 157.161 307.506 156.438C306.984 155.716 307.293 155.917 307.326 155.576C307.326 155.458 307.351 155.341 307.401 155.233C307.45 155.126 307.522 155.031 307.612 154.954C307.9 154.757 308.211 154.595 308.538 154.472C308.958 154.265 308.818 154.265 309.098 153.912C309.379 153.559 309.098 153.497 308.992 153.15C308.885 152.803 308.953 152.808 309.025 152.394C309.098 151.979 309.098 152.259 309.586 151.946C309.972 151.733 310.394 151.592 310.831 151.531C311.104 151.394 311.346 151.203 311.543 150.971C311.666 150.819 311.75 150.641 311.79 150.45C311.831 150.13 311.853 149.809 311.857 149.486C311.857 149.318 311.644 148.456 311.504 148.456C311.364 148.456 311.224 148.248 310.943 148.181C310.736 148.145 310.533 148.087 310.338 148.008C310.125 147.907 309.951 147.251 309.777 147.01C309.664 146.825 309.519 146.66 309.351 146.523C309.138 146.355 309.138 146.489 308.925 146.596C308.694 146.754 308.443 146.88 308.179 146.971C307.926 147.01 307.433 147.352 307.113 147.419C306.794 147.487 306.401 147.767 306.081 147.834C305.762 147.901 305.762 147.907 305.582 147.627C305.403 147.347 305.156 147.453 304.943 147.419C304.73 147.386 304.517 147.319 303.984 147.251C303.451 147.184 303.698 146.971 303.665 146.63C303.675 146.353 303.613 146.079 303.485 145.834C303.345 145.627 303.345 145.56 303.025 145.453C302.706 145.347 302.706 145.492 302.279 145.179C301.853 144.865 302.279 145.179 302.459 144.618C302.638 144.058 302.846 144.305 303.098 144.058C303.313 143.849 303.471 143.589 303.558 143.302C303.737 142.854 303.451 142.854 303.345 142.54C303.238 142.226 303.132 141.851 302.952 141.42C302.773 140.988 302.672 140.932 302.352 140.143C302.159 139.686 302.072 139.192 302.1 138.697C302.049 138.365 302.049 138.027 302.1 137.695C302.173 137.386 302.352 137.594 302.599 137.487C302.846 137.381 303.059 137.661 303.379 137.146C303.698 136.63 303.098 136.664 302.818 136.283C302.537 135.902 302.638 135.801 302.392 135.112C302.145 134.423 302.392 134.798 302.537 134.283C302.683 133.768 302.711 134.115 303.171 133.661C303.631 133.207 303.637 133.42 304.136 133.101C304.635 132.782 304.629 132.826 304.842 132.479C305.055 132.132 304.736 132.132 304.523 131.919C304.309 131.706 304.455 131.779 304.595 130.849C304.736 129.919 305.201 130.748 305.661 130.507C306.121 130.266 305.84 130.507 306.121 130.507C306.401 130.507 306.407 130.401 306.552 130.093C306.698 129.785 306.586 129.331 306.474 128.334C306.362 127.337 306.62 127.404 306.833 127.213C307.046 127.023 307.225 127.281 307.758 127.421C308.291 127.561 307.831 127.869 308.392 127.729C308.953 127.589 308.678 127.796 309.07 127.594C309.463 127.393 309.569 127.314 309.996 127.034C310.422 126.754 310.954 126.474 311.734 126.071C312.513 125.667 312.126 125.863 312.412 125.757C312.698 125.65 312.698 125.897 313.052 126.071C313.405 126.244 313.612 126.205 314.084 126.379C314.555 126.552 314.437 126.446 314.863 126.138C315.289 125.83 315.076 125.757 315.362 125.208C315.648 124.659 315.749 124.827 316.214 124.418C316.68 124.009 316.814 124.552 317.241 124.861C317.566 125.118 317.853 125.42 318.093 125.757C318.519 126.244 318.413 126.418 318.093 126.726C317.683 127.216 317.308 127.735 316.971 128.278C316.713 128.607 316.532 128.99 316.439 129.398C316.192 130.126 316.472 129.779 316.971 130.434C317.471 131.09 317.078 131.398 317.471 131.504C317.863 131.611 317.751 131.605 318.11 131.432C318.469 131.258 318.429 131.191 318.749 131.017C319.069 130.843 319.209 131.017 319.562 131.224C319.915 131.432 320.207 132.193 320.74 132.675C320.908 132.881 321.128 133.037 321.378 133.128C321.628 133.219 321.898 133.24 322.159 133.191C322.551 133.051 322.512 133.398 322.831 133.364C323.151 133.331 323.011 133.431 323.331 133.538C323.65 133.644 323.684 133.812 324.222 133.538C324.76 133.263 324.222 133.538 324.609 133.224C324.996 132.911 324.643 132.983 324.895 132.776C325.147 132.569 325.321 132.776 325.641 132.709C325.961 132.642 326.067 132.742 326.353 132.709C326.638 132.715 326.923 132.737 327.205 132.776C327.486 132.776 327.632 132.983 327.912 133.017C328.192 133.051 328.237 133.123 328.551 133.051C328.865 132.978 328.731 132.95 328.977 132.709C329.224 132.468 329.303 132.434 329.622 132.675C329.928 132.888 330.211 133.13 330.469 133.398C330.721 133.672 331.288 133.958 331.501 134.16C331.714 134.361 332.32 134.569 332.46 134.462C332.6 134.356 332.499 134.261 332.712 133.902C332.925 133.544 333.032 133.835 333.312 133.728C333.592 133.622 334.557 133.56 334.697 133.387C334.837 133.213 334.809 132.871 334.877 132.042C334.92 131.385 334.884 130.725 334.77 130.076C334.728 129.51 334.789 128.94 334.95 128.395C334.98 127.691 334.944 126.986 334.843 126.289" fill="#E9E9E9"/>
</svg>
